<svg width="37" height="37" viewBox="0 0 37 37" fill="none" xmlns="http://www.w3.org/2000/svg">
<path d="M16.1837 10.4226C16.3189 10.6912 16.4002 10.9827 16.4235 11.2866L17.0225 19.748C17.0306 19.8639 17.0855 19.972 17.1752 20.0482C17.2424 20.1053 17.3251 20.1411 17.4174 20.1514L17.5129 20.1533L26.1064 19.6356C26.8042 19.5945 27.4884 19.8374 27.9969 20.3066C28.5055 20.7759 28.7931 21.4298 28.7894 22.1864C28.4072 27.7556 24.3164 32.4115 18.7449 33.6183C13.1733 34.8251 7.45535 32.2939 4.71381 27.4183C3.98071 26.1614 3.48658 24.7866 3.25845 23.3946L3.18542 22.872C3.12202 22.4807 3.08793 22.0855 3.08301 21.7059L3.08781 21.3323C3.10366 15.5176 7.18625 10.4895 12.9313 9.13336L13.3256 9.04662L13.5377 9.01153C14.6486 8.85966 15.7416 9.44199 16.1837 10.4226ZM13.9 11.2205L13.7701 11.2352L13.4179 11.3148C8.84154 12.4178 5.55924 16.3576 5.37695 20.9991L5.36899 21.3769C5.35803 21.6643 5.36853 21.952 5.4032 22.2582L5.44603 22.5712C5.59919 23.8882 6.02443 25.1609 6.7046 26.3274C8.96651 30.3498 13.6692 32.4316 18.2515 31.439C22.8338 30.4465 26.1982 26.6173 26.5099 22.1097C26.5099 22.0418 26.4815 21.9768 26.431 21.9303C26.3973 21.8992 26.3559 21.8781 26.312 21.8687L26.245 21.8635L17.6657 22.3803C16.9416 22.4317 16.2265 22.1988 15.6785 21.7331C15.1305 21.2674 14.7948 20.6072 14.7461 19.9029L14.1476 11.4487C14.1465 11.4347 14.1427 11.421 14.1164 11.3667C14.0774 11.2803 13.9926 11.2254 13.9 11.2205ZM20.6935 3.08496C27.3002 3.27183 32.8416 8.01917 33.9016 14.4005L33.9163 14.5791L33.9129 14.8903C33.8758 15.3492 33.6909 15.7856 33.3836 16.1363C32.9977 16.5766 32.4482 16.8483 31.8486 16.8916L21.6036 17.5597C20.2903 17.6339 19.1618 16.6578 19.0764 15.3758L18.3915 5.31742L18.3993 5.09205L18.4334 4.83812C18.5247 4.38788 18.7593 3.97654 19.1048 3.66366C19.5386 3.27075 20.1144 3.06269 20.6935 3.08496ZM20.6754 5.31724L21.3534 15.2288C21.3575 15.289 21.4104 15.3348 21.4619 15.3319L31.6319 14.6667L31.5814 14.3892C30.5736 9.37364 26.2264 5.64933 21.0106 5.33313L20.6754 5.31724Z" fill="#838383"/>
</svg>
