<svg width="38" height="37" viewBox="0 0 38 37" fill="none" xmlns="http://www.w3.org/2000/svg">
<path d="M5.125 14.3333C5.125 13.3905 5.125 12.9191 5.41789 12.6262C5.71079 12.3333 6.18219 12.3333 7.125 12.3333H30.875C31.8178 12.3333 32.2892 12.3333 32.5821 12.6262C32.875 12.9191 32.875 13.3905 32.875 14.3333V18.0417C32.875 18.9845 32.875 19.4559 32.5821 19.7488C32.2892 20.0417 31.8178 20.0417 30.875 20.0417H30.25C29.3072 20.0417 28.8358 20.0417 28.5429 20.3346C28.25 20.6274 28.25 21.0989 28.25 22.0417V28.8333C28.25 29.7761 28.25 30.2475 27.9571 30.5404C27.6642 30.8333 27.1928 30.8333 26.25 30.8333H11.75C10.8072 30.8333 10.3358 30.8333 10.0429 30.5404C9.75 30.2475 9.75 29.7761 9.75 28.8333V22.0417C9.75 21.0989 9.75 20.6274 9.45711 20.3346C9.16421 20.0417 8.69281 20.0417 7.75 20.0417H7.125C6.18219 20.0417 5.71079 20.0417 5.41789 19.7488C5.125 19.4559 5.125 18.9845 5.125 18.0417V14.3333Z" stroke="#838383" stroke-width="2"/>
<path d="M8.20801 20.0417H29.7913" stroke="#838383" stroke-width="2" stroke-linecap="round"/>
<path d="M19 10.7917L19 30.8333" stroke="#838383" stroke-width="2" stroke-linecap="round"/>
<path d="M18.9997 10.7917L16.9817 8.77368C15.7742 7.56615 14.3021 6.65636 12.682 6.11634L10.8405 5.50248C9.5454 5.0708 8.20801 6.03474 8.20801 7.39985V9.35015C8.20801 10.211 8.75887 10.9753 9.57555 11.2475L12.833 12.3333" stroke="#838383" stroke-width="2" stroke-linecap="round"/>
<path d="M19.0003 10.7917L21.0183 8.77368C22.2258 7.56615 23.6979 6.65636 25.318 6.11634L27.1595 5.50248C28.4546 5.0708 29.792 6.03474 29.792 7.39985V9.35015C29.792 10.211 29.2411 10.9753 28.4244 11.2475L25.167 12.3333" stroke="#838383" stroke-width="2" stroke-linecap="round"/>
</svg>
