<svg width="30" height="30" viewBox="0 0 30 30" fill="none" xmlns="http://www.w3.org/2000/svg">
<path d="M29.9453 7.16145L27.8025 0.732882C27.6567 0.295124 27.2471 -0.000125518 26.7857 4.00306e-08H3.2143C2.75294 -0.000125518 2.3433 0.295124 2.19753 0.732882L0.0546334 7.16145C0.0216116 7.26152 0.00315468 7.36579 1.57356e-05 7.47107C1.57356e-05 7.48181 1.57356e-05 7.48928 1.57356e-05 7.50002V8.57146C0.00390803 10.2502 0.797748 11.8292 2.14285 12.8336C2.14285 12.8422 2.14285 12.8486 2.14285 12.8571V26.7857C2.14285 28.5609 3.58193 30 5.35713 30H24.6428C26.418 30 27.8571 28.5609 27.8571 26.7857V12.8571C27.8571 12.8485 27.8571 12.8421 27.8571 12.8336C29.2022 11.8292 29.9961 10.2502 30 8.57146V7.50002C30 7.48928 30 7.48181 30 7.47107C29.9968 7.36573 29.9784 7.26146 29.9453 7.16145ZM4.05 2.14283H26.0132L27.4425 6.42857H2.55L4.05 2.14283ZM17.1429 27.8571H12.8571V19.2857H17.1429V27.8571ZM25.7143 26.7857C25.7143 27.3775 25.2346 27.8572 24.6428 27.8572H19.2857V18.2143C19.2857 17.6226 18.806 17.1429 18.2143 17.1429H11.7857C11.1939 17.1429 10.7143 17.6226 10.7143 18.2143V27.8572H5.35713C4.76538 27.8572 4.28569 27.3775 4.28569 26.7857V13.8214C5.7893 14.1301 7.35288 13.7713 8.57142 12.8379C10.484 14.2426 13.0874 14.2426 15 12.8379C16.9126 14.2426 19.5159 14.2426 21.4286 12.8379C22.6471 13.7713 24.2107 14.1301 25.7143 13.8214V26.7857ZM24.6428 11.7857C23.7163 11.7851 22.8364 11.3787 22.2353 10.6736C21.846 10.228 21.1691 10.1824 20.7235 10.5718C20.6874 10.6034 20.6534 10.6374 20.6218 10.6736C19.4304 12.0032 17.3868 12.1153 16.0572 10.924C15.9692 10.8451 15.8856 10.7616 15.8068 10.6736C15.3875 10.228 14.6863 10.2067 14.2407 10.626C14.2244 10.6414 14.2085 10.6572 14.1932 10.6736C13.0019 12.0032 10.9583 12.1153 9.62862 10.924C9.5406 10.8451 9.45704 10.7616 9.37819 10.6736C8.95889 10.228 8.25771 10.2067 7.81217 10.626C7.79585 10.6414 7.77996 10.6572 7.76464 10.6736C7.16354 11.3787 6.28375 11.7851 5.35713 11.7857C3.58193 11.7857 2.14285 10.3466 2.14285 8.5714H27.8571C27.8571 10.3466 26.418 11.7857 24.6428 11.7857Z" fill="#838383"/>
</svg>
