<svg width="31" height="30" viewBox="0 0 31 30" fill="none" xmlns="http://www.w3.org/2000/svg">
<g clip-path="url(#clip0_150_1168)">
<path d="M11.4401 1.17417C13.3618 -0.329327 16.0553 -0.388931 18.036 0.995364L18.2796 1.17417L27.4932 8.43241C28.507 9.20577 29.1289 10.3546 29.2349 11.6048L29.25 11.9043V23.9875C29.25 27.1018 26.7518 29.6349 23.6211 29.7988H20.6099C19.1709 29.7705 18.0072 28.6678 17.9013 27.2821L17.8862 27.072V22.8118C17.8862 22.3484 17.5366 21.9624 17.0691 21.8864L16.9329 21.8715H12.8912C12.4086 21.8864 12.0151 22.2292 11.9546 22.6762L11.9395 22.8118V27.0586C11.9395 27.1465 11.9228 27.2508 11.9092 27.3253L11.8941 27.3566L11.8774 27.4594C11.6974 28.7275 10.6382 29.6945 9.32171 29.7854L9.125 29.7988H6.41645C3.25395 29.7988 0.666447 27.3566 0.5 24.2855V11.9043C0.513618 10.6363 1.075 9.45908 2.01316 8.63953L11.4401 1.17417ZM16.9632 2.79837C15.8132 1.88942 14.1789 1.84621 12.9684 2.63446L12.7399 2.79837L3.53993 10.1013C3.01184 10.4872 2.69408 11.0684 2.61842 11.6793L2.60178 11.9177V23.9875C2.60178 25.9693 4.17546 27.5935 6.17434 27.7127H9.125C9.45789 27.7127 9.74539 27.4907 9.78928 27.1778L9.82105 26.9095L9.83618 26.8335V22.8118C9.83618 21.2174 11.077 19.921 12.6658 19.8003H16.9329C18.5505 19.8003 19.8669 21.0237 19.9895 22.5883V27.072C19.9895 27.3849 20.2164 27.6546 20.5191 27.7127H23.332C25.3597 27.7127 27.009 26.1794 27.1301 24.2259L27.1467 23.9875V11.9177C27.1301 11.2785 26.8592 10.681 26.3901 10.2354L26.1934 10.07L16.9632 2.79837Z" fill="#838383"/>
</g>
<defs>
<clipPath id="clip0_150_1168">
<rect width="30" height="30" fill="white" transform="translate(0.5)"/>
</clipPath>
</defs>
</svg>
