<svg width="30" height="30" viewBox="0 0 30 30" fill="none" xmlns="http://www.w3.org/2000/svg">
<path d="M13.5981 0C17.0735 0 19.9101 2.8109 20.0694 6.33936L20.0764 6.6525V8.052C20.0764 8.67332 19.5859 9.177 18.9809 9.177C18.4262 9.177 17.9679 8.75377 17.8953 8.20466L17.8853 8.052V6.6525C17.8853 4.30815 16.1003 2.3914 13.8499 2.25747L13.5981 2.25H6.47693C4.19517 2.25 2.32879 4.0832 2.19839 6.39386L2.19111 6.6525V23.3475C2.19111 25.6917 3.976 27.6086 6.22518 27.7425L6.47693 27.75H13.6127C15.8876 27.75 17.7481 25.9236 17.8781 23.6217L17.8853 23.364V21.9495C17.8853 21.3282 18.3758 20.8245 18.9809 20.8245C19.5355 20.8245 19.9939 21.2477 20.0664 21.7968L20.0764 21.9495V23.364C20.0764 26.9208 17.3495 29.8246 13.9258 29.9923L13.6127 30H6.47693C3.00264 30 0.166292 27.1888 0.00705126 23.6606L0 23.3475V6.6525C0 3.08392 2.73708 0.170793 6.17208 0.00724213L6.47693 0H13.5981ZM25.2768 9.72129L25.3999 9.82994L29.677 14.2024C29.7155 14.2417 29.7493 14.2816 29.7802 14.3239L29.677 14.2024C29.7216 14.2481 29.7616 14.2966 29.7969 14.3476C29.8219 14.3832 29.845 14.4208 29.8658 14.4599C29.8696 14.4675 29.8735 14.475 29.8772 14.4824C29.8957 14.5184 29.9121 14.5557 29.9266 14.594C29.9325 14.6108 29.9384 14.6278 29.9439 14.6449C29.9546 14.6764 29.9635 14.7089 29.9711 14.7419C29.9746 14.7595 29.9782 14.7771 29.9813 14.7946C29.9873 14.8253 29.9917 14.8569 29.9947 14.8889C29.9964 14.9112 29.9979 14.9333 29.9987 14.9554C29.9997 14.9702 30 14.985 30 14.9999L29.9988 15.0423C29.9979 15.0654 29.9964 15.0885 29.9942 15.1115L30 14.9999C30 15.0701 29.9937 15.1389 29.9817 15.2056C29.9782 15.2222 29.9746 15.2398 29.9706 15.2573C29.9632 15.2921 29.9539 15.3258 29.9431 15.3588C29.9375 15.3741 29.9321 15.3897 29.9263 15.4051C29.9127 15.4424 29.8969 15.4785 29.8794 15.5136C29.875 15.5215 29.8704 15.5304 29.8657 15.5392C29.8154 15.6342 29.7524 15.7201 29.6791 15.7953L29.6771 15.7968L25.4 20.1708C24.9713 20.6093 24.2776 20.6078 23.8507 20.1676C23.4625 19.7673 23.4284 19.1423 23.7475 18.7025L23.8539 18.5766L26.2481 16.1235L11.3156 16.1249C10.7106 16.1249 10.2201 15.6212 10.2201 14.9999C10.2201 14.4303 10.6322 13.9596 11.167 13.8851L11.3156 13.8749L26.251 13.8735L23.854 11.4245C23.4642 11.026 23.4275 10.401 23.7447 9.9599L23.8506 9.83348C24.2386 9.43319 24.8472 9.39549 25.2768 9.72129Z" fill="#838383"/>
</svg>
