<svg width="37" height="37" viewBox="0 0 37 37" fill="none" xmlns="http://www.w3.org/2000/svg">
<path d="M7.70833 12.3333V26.8333C7.70833 28.719 7.70833 29.6618 8.29412 30.2475C8.87991 30.8333 9.82272 30.8333 11.7083 30.8333H25.2917C27.1773 30.8333 28.1201 30.8333 28.7059 30.2475C29.2917 29.6618 29.2917 28.719 29.2917 26.8333V12.3333M7.70833 12.3333H29.2917M7.70833 12.3333H5.025C4.83644 12.3333 4.74216 12.3333 4.68358 12.2748C4.625 12.2162 4.625 12.1219 4.625 11.9333V10.1667C4.625 8.28105 4.625 7.33824 5.21079 6.75245C5.79657 6.16667 6.73938 6.16667 8.625 6.16667H28.375C30.2606 6.16667 31.2034 6.16667 31.7892 6.75245C32.375 7.33824 32.375 8.28105 32.375 10.1667V11.9333C32.375 12.1219 32.375 12.2162 32.3164 12.2748C32.2578 12.3333 32.1636 12.3333 31.975 12.3333H29.2917" stroke="#838383" stroke-width="3"/>
<path d="M15.417 24.6667H21.5837" stroke="#838383" stroke-width="2" stroke-linecap="round"/>
</svg>
