<svg width="31" height="30" viewBox="0 0 31 30" fill="none" xmlns="http://www.w3.org/2000/svg">
<path d="M16.4728 3.26988e-07C17.5923 -0.000428487 18.6643 0.420921 19.4446 1.16807C20.225 1.91521 20.6472 2.92452 20.6132 3.86649L20.6266 4.08803C20.6538 4.30619 20.7301 4.51674 20.8539 4.71082C21.095 5.0935 21.4897 5.37121 21.9511 5.48271C22.4124 5.5942 22.9025 5.53031 23.3665 5.27758L23.6252 5.15325C25.5673 4.30346 27.8965 4.97877 28.9737 6.71892L29.9419 8.28261C29.9674 8.32383 29.9899 8.36643 30.0093 8.41012L30.0991 8.57763C30.965 10.2978 30.3489 12.3439 28.7038 13.3834L28.2976 13.621C28.0852 13.7588 27.9081 13.9389 27.775 14.1552C27.5345 14.5394 27.4685 14.9969 27.5916 15.4266C27.7147 15.8562 28.0167 16.2224 28.4748 16.4689L28.7384 16.6261C29.5347 17.1446 30.11 17.9087 30.3609 18.7845C30.644 19.7726 30.4922 20.825 29.9314 21.7206L28.8899 23.3355L28.7329 23.5633C27.5092 25.2012 25.1333 25.7016 23.3201 24.7274L23.1052 24.6244C22.881 24.5311 22.6391 24.4798 22.4189 24.4741C21.9399 24.4719 21.4799 24.6481 21.1411 24.9633C20.8024 25.2786 20.6132 25.7068 20.6144 26.2047L20.6016 26.4621C20.4263 28.4555 18.6334 30 16.4733 30H14.5227C12.235 30 10.3805 28.2739 10.3828 26.213L10.3694 25.9915C10.3422 25.7733 10.2659 25.5628 10.1358 25.3586C9.90003 24.975 9.50934 24.6949 9.0506 24.5806C8.59186 24.4664 8.10309 24.5274 7.62998 24.782L7.34887 24.9126C6.4599 25.2848 5.45715 25.3535 4.51755 25.1049C3.45747 24.8245 2.56115 24.1625 2.03809 23.2836L1.03177 21.6663L0.897841 21.4267C-0.0185692 19.6262 0.699759 17.4618 2.52287 16.4812L2.68914 16.3843C3.17618 16.0705 3.46821 15.5532 3.46821 15C3.46821 14.3984 3.1234 13.8426 2.52024 13.5173L2.2755 13.3711C0.515801 12.2321 -0.0218539 10.0207 1.06825 8.26043L2.09344 6.69248C3.23361 4.85064 5.76035 4.21525 7.70371 5.25257L7.91408 5.35695C8.12855 5.44857 8.3615 5.4972 8.58581 5.49942C9.57487 5.49952 10.3807 4.76028 10.3956 3.81271L10.4091 3.52171C10.4901 2.62074 10.9101 1.77405 11.5968 1.13186C12.3715 0.407325 13.4245 3.26988e-07 14.5227 3.26988e-07H16.4728ZM16.4733 2.17161H14.5227C14.0452 2.17161 13.5874 2.34871 13.2505 2.66373C12.952 2.94295 12.7693 3.31111 12.7373 3.65492L12.7161 4.11225C12.5527 6.10631 10.7627 7.67124 8.57357 7.67097C8.00928 7.66552 7.45298 7.54939 6.88568 7.30538L6.58195 7.15628C5.71652 6.69473 4.61301 6.97223 4.1009 7.79887L3.07571 9.36683C2.60595 10.1257 2.84089 11.092 3.56827 11.5639L3.97992 11.8065C5.11363 12.52 5.80138 13.7144 5.80138 15C5.80138 16.2668 5.13283 17.4511 3.97715 18.1944L3.73114 18.3384C2.92138 18.7744 2.60888 19.716 2.98524 20.4575L3.07412 20.6174L4.06766 22.2126C4.30097 22.6044 4.69243 22.8936 5.15541 23.0161C5.56575 23.1246 6.00372 23.0946 6.34539 22.9527L6.51705 22.8745C7.46467 22.3599 8.5939 22.2188 9.65375 22.4828C10.7136 22.7468 11.6162 23.3939 12.1516 24.2653C12.4397 24.717 12.6219 25.2197 12.6925 25.7977L12.7243 26.3281C12.8225 27.1717 13.5902 27.8284 14.5227 27.8284H16.4733C17.4164 27.8284 18.1998 27.1535 18.2734 26.3267L18.2823 26.1631C18.277 25.1377 18.7123 24.1529 19.4913 23.4278C20.2704 22.7027 21.3285 22.2975 22.4558 22.3029C23.0088 22.3166 23.5532 22.432 24.1096 22.6651L24.6086 22.9022C25.3916 23.2222 26.3204 22.9887 26.7912 22.3601L26.9056 22.1936L27.9231 20.6154C28.1636 20.2312 28.2296 19.7737 28.1065 19.344C27.9974 18.9632 27.7473 18.631 27.444 18.4322L27.0141 18.1793C26.192 17.6622 25.5946 16.8844 25.3372 15.9861C25.0541 14.998 25.2059 13.9456 25.7547 13.0689C26.0551 12.5807 26.468 12.161 27.0063 11.813L27.26 11.6642C28.0685 11.2241 28.3808 10.2826 28.0071 9.53825L27.8955 9.33794L27.8755 9.29589L26.9521 7.80313C26.5154 7.09763 25.6066 6.79279 24.8355 7.03365L24.6602 7.09898L24.4974 7.17623C23.5528 7.69411 22.4258 7.84104 21.3647 7.58462C20.3037 7.32819 19.3958 6.68947 18.8444 5.81424C18.5563 5.36256 18.3741 4.85976 18.3035 4.28181L18.2828 3.90373C18.2968 3.44885 18.1125 3.00805 17.7717 2.68174C17.4309 2.35544 16.9627 2.17161 16.4733 2.17161ZM15.5051 10.0977C18.414 10.0977 20.7721 12.2926 20.7721 15C20.7721 17.7074 18.414 19.9023 15.5051 19.9023C12.5962 19.9023 10.2381 17.7074 10.2381 15C10.2381 12.2926 12.5962 10.0977 15.5051 10.0977ZM15.5051 12.2693C13.8848 12.2693 12.5713 13.4919 12.5713 15C12.5713 16.5081 13.8848 17.7307 15.5051 17.7307C17.1254 17.7307 18.4389 16.5081 18.4389 15C18.4389 13.4919 17.1254 12.2693 15.5051 12.2693Z" fill="#838383"/>
</svg>
